<svg xmlns="http://www.w3.org/2000/svg" xmlns:xlink="http://www.w3.org/1999/xlink" version="1.1" baseProfile="full" viewBox="0 0 200 200" width="200" height="200">
<g fill="black">
<path d="M 42 190.5 L 39.6 187.8 L 35.9 176.2 L 37.9 175.9 L 47.1 174.9 L 56.2 173.9 L 61.6 173.3 L 61.6 152.8 L 56.5 154.7 L 46.6 158.1 L 36.1 161.4 L 24.9 164.4 L 13.2 167.1 L 12.6 165.4 L 23.7 160.8 L 34.3 156.3 L 44.2 152 L 53.6 147.7 L 62.4 143.5 L 70.6 139.2 L 78.1 135 L 85 130.8 L 87.3 129.2 L 17.9 129.2 L 17.9 125.2 L 94.4 125.2 L 94.4 110.5 L 106.4 112.5 L 109.4 114.5 L 106.4 116.3 L 106.4 125.2 L 163 125.2 L 173 115.2 L 185 125.2 L 185 129.2 L 108.8 129.2 L 113 134.7 L 118.6 141.1 L 124.6 147 L 131 152.4 L 132.1 153.2 L 132.7 152.7 L 136.2 149.9 L 139.8 147.2 L 146.4 142.2 L 149.6 139.7 L 152.6 137.3 L 155.5 135 L 158.2 132.7 L 160.1 131.1 L 160.8 130.4 L 167.3 139.4 L 167.9 140.1 L 168 143.7 L 164.3 142.1 L 161.3 143.8 L 157.9 145.6 L 154.3 147.3 L 150.6 149.1 L 146.7 150.8 L 142.7 152.5 L 138.5 154.1 L 135 155.2 L 137.9 157.3 L 145.3 161.6 L 153.2 165.5 L 161.8 168.8 L 170.9 171.6 L 180.6 173.9 L 189.3 176 L 177.5 186.8 L 167.1 183.6 L 157.4 179.8 L 148.4 175.4 L 140 170.4 L 132.4 164.8 L 125.5 158.7 L 119.3 152 L 114 144.8 L 109.5 136.9 L 106.8 130.2 L 103.9 132.1 L 97.5 136.1 L 90.4 140.1 L 82.8 143.9 L 74.6 147.6 L 73.6 148 L 73.6 171.8 L 74.6 171.7 L 83.8 170.5 L 93 169.4 L 102.2 168.2 L 111.5 167.1 L 120.8 166.2 L 130.1 165.4 L 130.5 167.1 L 121.5 169.9 L 112.5 172.4 L 103.4 174.7 L 94.3 176.9 L 85.2 178.9 L 67 182.7 L 57.9 184.5 L 48.7 186.2 L 43.6 187.1 Z M 145.5 122.6 L 145.5 116.6 L 133.5 113.6 L 133.5 110.6 L 146.8 110.6 L 147.7 110.4 L 148.3 110.2 L 148.6 110 L 148.8 109.9 L 148.9 109.7 L 149.1 109.4 L 149.3 108.8 L 149.5 107.9 L 149.5 78.3 L 80.1 78.3 L 80.1 74.3 L 149.5 74.3 L 149.5 57.6 L 161.5 59.6 L 164.5 61.6 L 161.5 63.4 L 161.5 74.3 L 164.5 74.3 L 174.5 64.3 L 186.5 74.3 L 186.5 78.3 L 161.5 78.3 L 161.5 106.6 L 161.4 109.2 L 160.9 111.7 L 160.1 114.1 L 158.9 116.4 L 157.3 118.4 L 155.2 120 L 153 121.2 L 150.6 122 L 148.1 122.5 Z M 18.7 120 L 17.6 118.6 L 20.7 115.2 L 23.3 111.7 L 25.5 108.2 L 27.3 104.7 L 28.8 101.3 L 29.9 97.7 L 30.7 94.2 L 31.1 90.5 L 31.3 86.7 L 31.1 82.8 L 31.1 75.4 L 19.1 75.4 L 19.1 71.4 L 59.9 71.4 L 59.9 53.1 L 38.6 53.1 L 38.6 56.1 L 26.6 62.1 L 26.6 21.9 L 38.6 23.9 L 41.6 25.9 L 38.6 27.7 L 38.6 49.1 L 59.9 49.1 L 59.9 15.4 L 71.9 17.4 L 74.9 19.4 L 71.9 21.2 L 71.9 114.5 L 59.9 120.5 L 59.9 75.4 L 43.1 75.4 L 43.1 82.8 L 42.5 87.7 L 41.5 92.4 L 40.1 96.8 L 38.2 101.1 L 35.9 105 L 33.3 108.6 L 30.2 112 L 26.7 115 L 22.8 117.6 Z M 118.8 101.3 L 115.2 98.5 L 115.2 97.8 L 115 96.8 L 114.4 95.6 L 113.5 94.3 L 112.2 92.8 L 110.7 91.3 L 108.9 89.7 L 106.8 88 L 104.4 86.2 L 101.6 84.9 L 102.2 83.2 L 105.3 84.1 L 108.3 84.6 L 111.1 85.2 L 113.7 85.9 L 116.1 86.7 L 118.3 87.6 L 120.4 88.6 L 122.3 89.7 L 124.1 91.1 L 125.7 92.7 L 126.1 97.2 L 123.3 100.8 Z M 80.9 73.1 L 80.6 71.4 L 92.4 67.9 L 103.6 64.3 L 114.1 60.4 L 124 56.2 L 133.1 51.6 L 141.6 46.7 L 149.3 41.5 L 156.4 35.8 L 162.9 29.8 L 163.2 29.5 L 127.7 29.5 L 124.6 31.7 L 121 33.8 L 123.7 34.1 L 126.6 34.4 L 129.2 34.8 L 131.7 35.2 L 133.9 35.7 L 136 36.2 L 138 36.8 L 139.9 37.5 L 142.2 41.4 L 141.1 45.9 L 137.2 48.2 L 132.7 47.2 L 132.2 46.3 L 131.3 45.3 L 130 44.1 L 128.5 42.9 L 126.6 41.7 L 124.5 40.3 L 122.2 38.9 L 117 36.1 L 114.3 37.5 L 108.7 40.2 L 105 41.7 L 106.4 41.8 L 109 42.2 L 111.6 42.7 L 114 43.2 L 116.2 43.7 L 118.4 44.4 L 120.4 45.1 L 122.4 46 L 124.7 49.9 L 123.6 54.4 L 119.6 56.7 L 115.2 55.6 L 114.3 54.5 L 113.2 53.3 L 111.9 52 L 110.4 50.7 L 108.7 49.4 L 106.8 48 L 104.7 46.6 L 102.4 45.2 L 99.9 43.6 L 96.5 44.8 L 89.9 46.8 L 82.9 48.3 L 82.3 46.7 L 88.4 43.2 L 94.3 39.9 L 99.9 36.7 L 105.1 33.5 L 110 30.2 L 114.5 26.9 L 118.6 23.6 L 122.4 20.2 L 125.8 16.8 L 128.2 14 L 128.1 14 L 129.2 12.9 L 137.6 21.5 L 138.4 25 L 134.6 24.2 L 133.6 25.1 L 133.1 25.5 L 166.9 25.5 L 168.7 23.5 L 169.1 23.8 L 173.1 20.5 L 184.1 29.5 L 179.1 32.5 L 174.6 34.4 L 170.7 38.1 L 163.1 44.2 L 155 49.8 L 146.2 54.8 L 136.8 59.3 L 126.8 63.2 L 116.2 66.6 L 105.1 69.5 L 93.3 71.6 Z "/>
</g>
</svg>