<svg xmlns="http://www.w3.org/2000/svg" xmlns:xlink="http://www.w3.org/1999/xlink" version="1.1" baseProfile="full" viewBox="0 0 200 200" width="200" height="200">
<g fill="black">
<path d="M 32.2 118 L 31.8 128.7 L 31 138.7 L 30 147.8 L 28.7 156.2 L 27 163.8 L 25 170.5 L 22.7 176.4 L 20 181.5 L 16.9 185.6 L 13.4 188.6 L 12.1 187.3 L 13.7 183.5 L 15.2 179.2 L 16.5 174.3 L 17.7 168.6 L 18.7 162.1 L 19.5 154.9 L 20 146.9 L 20.3 138 L 20.4 128.4 L 20.2 118 Z M 111.2 171 L 111 173.5 L 110.6 176 L 109.8 178.4 L 108.5 180.7 L 106.9 182.7 L 104.9 184.3 L 102.6 185.6 L 100.2 186.4 L 97.7 186.8 L 95.2 187 L 95.2 181 L 83.2 178 L 83.2 175 L 95.2 175 L 96.4 174.9 L 97.3 174.7 L 98.2 174.4 L 98.6 174 L 98.9 173.1 L 99.1 172.2 L 99.2 171 Z M 54 114 L 32.2 114 L 32.2 118 L 20.2 118 L 20.2 16 L 32.2 22 L 54 22 L 60 17 L 71 26 L 66 30 L 66 171 L 65.8 173.5 L 65.4 176 L 64.6 178.4 L 63.4 180.7 L 61.7 182.7 L 59.7 184.3 L 57.4 185.6 L 55 186.4 L 52.5 186.8 L 50 187 L 50 181 L 34 178 L 34 175 L 50 175 L 51.2 174.9 L 52.1 174.7 L 53 174.4 L 53.4 174 L 53.6 173.7 L 53.8 173.1 L 53.9 172.2 L 54 171 Z M 172.5 180.9 L 163.8 172.4 L 156.4 161.4 L 152.1 151.9 L 151.8 152.2 L 144.7 160.4 L 137.2 167.8 L 129.2 174.6 L 120.7 180.6 L 111.7 185.7 L 110.7 184.2 L 118.4 177.6 L 125.6 170.6 L 132.5 163.2 L 139 155.4 L 145 147.1 L 148.4 141.9 L 145.4 132.2 L 141.5 113.9 L 138.7 93.2 L 137.5 78 L 111.2 78 L 111.2 110.7 L 114.5 108.6 L 126.3 101 L 132.2 97.3 L 133.4 98.6 L 128.7 104 L 123.7 109 L 118.4 113.9 L 112.9 118.6 L 111.2 120 L 111.2 171 L 99.2 171 L 99.2 129 L 95.4 131.7 L 89.2 135.9 L 82.9 139.9 L 80 141.7 L 79.6 145.5 L 76.5 143.8 L 76.3 143.4 L 74.4 139.9 L 73.8 138.7 L 73.5 138.3 L 73.4 138 L 72.3 135.9 L 71.3 134.1 L 71.2 134 L 70.8 133.2 L 77.4 130 L 83.8 126.6 L 90.1 123.2 L 96.3 119.7 L 99.2 118 L 99.2 78 L 71.4 78 L 71.4 74 L 99.2 74 L 99.2 41.6 L 98.9 41.7 L 93.2 44 L 87.2 46.1 L 81 48.1 L 74.4 49.8 L 73.8 48.1 L 79.4 44.6 L 85 41.3 L 90.3 38.1 L 95.5 34.9 L 100.4 31.9 L 105.1 28.8 L 109.6 25.7 L 113.9 22.7 L 118 19.7 L 121.1 17.3 L 121.8 16.7 L 127.9 25.1 L 128.9 26.3 L 129 29.9 L 125.5 28.4 L 124.3 29.1 L 119.7 31.8 L 114.8 34.4 L 111.2 36.2 L 111.2 74 L 137.2 74 L 136.9 69.9 L 136.1 44.1 L 136.3 16.8 L 136.2 16.8 L 136.3 13.5 L 148.3 16.1 L 151.2 18.2 L 148.3 19.8 L 148.1 44 L 148.9 69.3 L 149.3 74 L 165.5 74 L 175.5 64 L 187.5 74 L 187.5 78 L 149.6 78 L 150.6 91.9 L 153.4 111.9 L 156.7 127.6 L 160.8 119.2 L 165.3 108.8 L 169.1 98.7 L 169 98.7 L 169.9 96.4 L 180.6 102 L 182.7 104.9 L 179.1 105.6 L 175.8 113.3 L 170.5 123.9 L 164.7 134 L 160.5 140.3 L 161.6 143.8 L 167 155.7 L 173 164.8 L 179.7 171.3 L 179.9 171.4 L 184.8 150 L 186.8 150 L 184.9 174.2 L 187 175.4 L 190.2 178.6 L 190.4 183.1 L 187.2 186.4 L 182.6 186.5 Z M 70.8 133.2 L 76.5 143.8 L 69 134.1 Z M 54 69 L 32.2 69 L 32.2 110 L 54 110 Z M 54 26 L 32.2 26 L 32.2 65 L 54 65 Z M 169.2 49 L 168.2 45.9 L 167 42.9 L 165.8 40 L 164.4 37.2 L 162.9 34.5 L 161.3 31.8 L 159.5 29.2 L 157.6 26.6 L 155.4 24.3 L 156.4 22.8 L 162.4 26 L 165.3 27.9 L 168.1 30.1 L 170.6 32.6 L 173.1 35.3 L 175.4 38.2 L 177.5 41.3 L 179.5 44.6 L 181.3 48 L 181.1 52.6 L 177.7 55.8 L 173.2 55.5 L 170 52.2 Z " />
</g>
</svg>
